<?xml version="1.0" encoding="UTF-8" standalone="no"?>
<svg
   width="90"
   height="26"
   version="1.1"
   id="svg10"
   sodipodi:docname="page-logo-i.svg"
   inkscape:version="1.2.1 (9c6d41e410, 2022-07-14)"
   xmlns:inkscape="http://www.inkscape.org/namespaces/inkscape"
   xmlns:sodipodi="http://sodipodi.sourceforge.net/DTD/sodipodi-0.dtd"
   xmlns="http://www.w3.org/2000/svg"
   xmlns:svg="http://www.w3.org/2000/svg">
  <defs
     id="defs14">
    <clipPath
       id="clipPath1368-4"
       clipPathUnits="userSpaceOnUse">
      <path
         inkscape:connector-curvature="0"
         id="path1370-9"
         d="m -74.26666,269.02574 c -9.375235,0 -16.922606,7.54737 -16.922606,16.9226 0,19.33359 0.162339,54.34811 0.162339,54.34811 H -36.1905 c 9.37522,0 16.92259,-7.54739 16.92259,-16.92259 v -54.34812 z"
         style="opacity:1;vector-effect:none;fill:#db3279;fill-opacity:1;stroke:none;stroke-width:10;stroke-linecap:round;stroke-linejoin:miter;stroke-miterlimit:4;stroke-dasharray:none;stroke-dashoffset:0;stroke-opacity:0.956863;marker:none;paint-order:normal"
         sodipodi:nodetypes="sscsscs" />
    </clipPath>
  </defs>
  <sodipodi:namedview
     id="namedview12"
     pagecolor="#505050"
     bordercolor="#ffffff"
     borderopacity="1"
     inkscape:pageshadow="0"
     inkscape:pageopacity="0"
     inkscape:pagecheckerboard="1"
     showgrid="false"
     width="137px"
     inkscape:current-layer="svg10"
     showguides="true"
     inkscape:guide-bbox="true"
     inkscape:showpageshadow="0"
     inkscape:deskcolor="#505050">
    <inkscape:grid
       type="xygrid"
       id="grid5602"
       originx="0"
       originy="0" />
    <sodipodi:guide
       position="54.877711,7.373027"
       orientation="0,-1"
       id="guide140"
       inkscape:locked="false" />
  </sodipodi:namedview>
  <path
     id="path1616"
     style="fill:#ffffff;fill-opacity:1;fill-rule:nonzero;stroke:none;stroke-width:1.3333493;font-variation-settings:normal;opacity:1;vector-effect:none;stroke-linecap:butt;stroke-linejoin:miter;stroke-miterlimit:4;stroke-dasharray:none;stroke-dashoffset:0;stroke-opacity:1;-inkscape-stroke:none;paint-order:markers fill stroke;stop-color:#000000;stop-opacity:1"
     d="M 12.903353,0 C 5.7796769,0 0.00719682,5.773179 0.00254805,12.895243 H 0 v 9.986002 H 0.00254805 C 0.00635879,24.498143 1.316342,25.807187 2.93404,25.807187 h 0.014014 0.00255 9.958176 C 20.033333,25.802087 25.8041,20.030247 25.8041,12.906368 25.804098,5.779479 20.030194,0 12.903305,0 Z m 22.563879,5.208766 c -2.727525,0 -4.477332,2.072445 -4.493283,4.011664 v 11.241577 c -0.0038,1.386058 2.1077,1.386058 2.104665,0 v -7.502742 h 2.163125 c 0.506118,0 0.938182,-0.366708 0.938182,-0.954883 0,-0.588176 -0.462912,-0.943757 -0.938182,-0.943757 h -2.163125 v -1.72884 c 0,-1.106601 0.865829,-2.028552 2.608549,-2.007228 0.606171,0.0076 0.819815,0.154587 1.041194,0.28954 1.208609,0.800524 2.371155,-1.053018 1.105242,-1.76224 C 37.057206,5.376778 36.332743,5.208766 35.467232,5.208766 Z M 15.517478,5.311764 c 2.166783,0 4.212111,1.659304 4.212111,3.947641 0,0.212221 0.0013,0.424659 -0.03341,0.665367 -0.06008,0.60884 -0.616357,1.046287 -1.222161,0.960459 -0.605791,-0.08687 -1.01686,-0.662155 -0.90478,-1.263918 0.01019,-0.06871 0.01401,-0.176535 0.01401,-0.361908 0,-1.297435 -1.061679,-1.798437 -2.0657,-1.798437 -1.003423,0 -1.907379,0.843884 -1.909779,1.798437 0.01727,1.104162 0,2.199803 0,3.301768 l 1.862458,-0.01397 c 1.453915,-0.0301 1.4704,2.160331 0.01676,2.149205 l -1.879158,0.01402 c -0.0051,0.888118 0.0064,0.727522 0.0025,1.174826 0,0 0.01576,1.086282 -0.01663,1.909779 -0.224769,2.418579 -2.284056,4.351307 -4.7577789,4.351307 -2.6219227,0 -4.7828118,-2.143286 -4.7828118,-4.771672 0.078735,-2.703942 2.2346267,-4.830349 4.9498589,-4.805089 l 1.5144698,-0.01144 v 2.146423 l -1.5144698,0.01402 h -0.00764 c -1.4922958,0.04419 -2.7706422,1.057769 -2.795078,2.655884 0,1.45615 1.176198,2.622467 2.6363886,2.622467 1.4577752,0 2.6252622,-1.060955 2.6252622,-2.619687 L 11.4594,9.25075 c 9.39e-4,-0.150867 0.0051,-0.270694 0.02222,-0.437093 0.24617,-1.987849 2.024437,-3.502204 4.036721,-3.502204 z m 43.003608,0.09741 c -0.656451,-0.03518 -1.139265,0.61501 -1.038399,1.233272 v 4.788401 c -2.081539,-1.745209 -5.469809,-1.623478 -7.391375,0.30901 -1.943256,1.731544 -2.312543,4.869821 -0.899216,7.032247 1.038159,1.632521 2.937041,2.798432 4.894179,2.705998 1.230644,-0.01147 2.450125,-0.543153 3.396412,-1.327941 -0.09717,0.619558 0.381643,1.275858 1.043975,1.23608 0.650153,0.02896 1.154912,-0.612586 1.055114,-1.233298 C 59.570306,15.548329 59.593246,10.943448 59.570306,6.339 59.536646,5.821576 59.042762,5.394733 58.52638,5.409174 h -0.0025 z m 8.131915,4.688156 a 5.7490407,5.7026087 0 0 0 -5.748847,5.701524 5.7490407,5.7026087 0 0 0 5.748847,5.704306 5.7490407,5.7026087 0 0 0 5.748845,-5.704306 5.7490407,5.7026087 0 0 0 -5.748845,-5.701524 z m 18.777707,0.05004 c -1.435094,0 -2.469354,0.426183 -3.223803,0.966021 -1.143694,0.818812 0.08687,2.530937 1.230506,1.712137 0.520522,-0.372461 0.907169,-0.570712 1.993297,-0.570712 1.351932,0.02718 2.438735,0.533983 2.438735,1.545091 -0.724806,0.458632 -3.875669,0.838929 -5.567881,1.801205 -1.692212,0.962286 -1.603564,2.17684 -1.603564,2.964905 0,1.728661 1.823774,2.895308 3.401987,2.895308 1.578227,0 2.247709,-0.331134 3.791733,-1.389195 v 0.30068 c -0.04991,1.452124 2.157345,1.452124 2.107449,0 v -6.20542 c 0.0064,-2.573751 -1.839487,-3.980827 -4.568459,-4.02002 z m -10.467634,0.02222 c -0.913265,0 -1.065451,0.753915 -1.06069,1.057908 v 9.153626 c -0.02503,0.591667 0.464347,1.082941 1.077404,1.082941 0.61303,0 1.102395,-0.491274 1.077378,-1.082941 0,0 0.01612,-3.405593 0,-5.584606 -0.01612,-2.179012 1.757615,-2.65032 2.374711,-2.65032 0.458238,0 0.825632,0.255835 1.188744,0.242207 0.538939,-0.02032 0.979942,-0.382392 0.979942,-1.016137 -0.01612,-1.023808 -1.270449,-1.168692 -2.196526,-1.149769 -0.926081,0.01893 -1.708671,0.302712 -2.385838,0.707127 0,0 -0.141837,-0.760036 -1.055125,-0.760036 z m -32.335526,0.02222 c -0.699086,-0.05372 -1.471441,0.05829 -2.321814,0.386966 -2.058042,0.795392 -3.454717,2.749623 -3.460433,5.161444 -0.0051,2.526366 1.762101,5.786019 5.428685,5.810087 2.466179,0.01612 3.699439,-0.904959 4.365226,-1.531172 0.441639,-0.391346 0.474279,-1.071434 0.0696,-1.50055 -0.405494,-0.429918 -1.085937,-0.440458 -1.503331,-0.02223 -0.496963,0.466862 -1.229045,1.160247 -3.30455,0.929839 -0.890531,-0.09855 -1.84652,-0.822052 -2.165906,-1.375276 l 6.798397,-2.892515 c 0.519974,-0.231017 0.760187,-0.834128 0.540079,-1.358561 -0.910458,-1.791565 -2.348675,-3.446692 -4.44595,-3.607998 z m 24.025453,2.040631 a 3.5960719,3.5670287 0 0 1 3.596857,3.566227 3.5960719,3.5670287 0 0 1 -3.596857,3.569033 3.5960719,3.5670287 0 0 1 -3.596861,-3.569033 3.5960719,3.5670287 0 0 1 3.596861,-3.566227 z m -12.692013,0.05563 c 1.879234,-0.04902 3.55703,1.64301 3.521699,3.504998 0.03949,1.863704 -1.644052,3.552841 -3.521699,3.504973 -1.785304,0.04736 -3.422117,-1.464787 -3.51333,-3.237721 -0.190124,-1.827609 1.310847,-3.610486 3.148641,-3.755536 0.121287,-0.01144 0.242778,-0.01676 0.364689,-0.01676 z m -11.865175,0.05575 c 1.022424,9.41e-4 1.987099,0.528281 2.477711,1.378044 l -5.659766,2.416469 c -0.404047,-1.507904 1.254153,-3.28066 2.157562,-3.610778 0.338627,-0.1237 0.683694,-0.184052 1.024493,-0.183735 z m 45.84602,3.530032 c -3.36e-4,0.682436 0.01019,0.879608 -0.0076,1.561803 -0.0051,0.819271 -0.518996,1.198209 -1.057908,1.511677 -0.538899,0.313468 -1.634677,0.587999 -2.268904,0.618034 -0.731573,0.02414 -1.700138,-0.140156 -1.751116,-1.00778 3.35e-4,-0.523709 0.254376,-0.849318 0.670943,-1.21101 0.986405,-0.740032 2.321129,-0.987739 4.415341,-1.472724 z" />
</svg>
