<?xml version="1.0" encoding="UTF-8" standalone="no"?>
<svg
   width="90"
   height="34"
   version="1.1"
   id="svg10"
   sodipodi:docname="page-logo-i.svg"
   inkscape:version="1.2.1 (9c6d41e410, 2022-07-14)"
   xmlns:inkscape="http://www.inkscape.org/namespaces/inkscape"
   xmlns:sodipodi="http://sodipodi.sourceforge.net/DTD/sodipodi-0.dtd"
   xmlns="http://www.w3.org/2000/svg"
   xmlns:svg="http://www.w3.org/2000/svg">
  <defs
     id="defs14">
    <clipPath
       id="clipPath1368-4"
       clipPathUnits="userSpaceOnUse">
      <path
         inkscape:connector-curvature="0"
         id="path1370-9"
         d="m -74.26666,269.02574 c -9.375235,0 -16.922606,7.54737 -16.922606,16.9226 0,19.33359 0.162339,54.34811 0.162339,54.34811 H -36.1905 c 9.37522,0 16.92259,-7.54739 16.92259,-16.92259 v -54.34812 z"
         style="opacity:1;vector-effect:none;fill:#db3279;fill-opacity:1;stroke:none;stroke-width:10;stroke-linecap:round;stroke-linejoin:miter;stroke-miterlimit:4;stroke-dasharray:none;stroke-dashoffset:0;stroke-opacity:0.956863;marker:none;paint-order:normal"
         sodipodi:nodetypes="sscsscs" />
    </clipPath>
  </defs>
  <sodipodi:namedview
     id="namedview12"
     pagecolor="#505050"
     bordercolor="#ffffff"
     borderopacity="1"
     inkscape:pageshadow="0"
     inkscape:pageopacity="0"
     inkscape:pagecheckerboard="1"
     showgrid="false"
     width="137px"
     inkscape:current-layer="svg10"
     showguides="true"
     inkscape:guide-bbox="true"
     inkscape:showpageshadow="0"
     inkscape:deskcolor="#505050">
    <inkscape:grid
       type="xygrid"
       id="grid5602"
       originx="0"
       originy="0" />
    <sodipodi:guide
       position="54.877711,15.373027"
       orientation="0,-1"
       id="guide140"
       inkscape:locked="false" />
  </sodipodi:namedview>
  <g
     aria-label="Silverblue"
     id="text2096"
     style="font-weight:300;font-size:11.2257px;line-height:1.25;font-family:Montserrat;-inkscape-font-specification:'Montserrat, Light';text-align:center;letter-spacing:0px;word-spacing:0px;text-anchor:middle;stroke-width:0.317166;fill:#ffffff"
     transform="matrix(0.70962227,0,0,0.70962227,13.98082,6.1098149)">
    <path
       d="m 38.570535,23.569636 q -0.482706,-0.303094 -1.055216,-0.460253 -0.572511,-0.168386 -1.077668,-0.168386 -0.80825,0 -1.302181,0.325545 -0.482705,0.31432 -0.482705,0.864379 0,0.482705 0.269417,0.785799 0.269417,0.303094 0.662316,0.482706 0.3929,0.168385 1.077667,0.381673 0.797025,0.23574 1.27973,0.47148 0.493931,0.224514 0.830702,0.662316 0.347997,0.437802 0.347997,1.156247 0,0.628639 -0.359223,1.111345 -0.347996,0.482705 -0.987861,0.752121 -0.639865,0.258192 -1.470567,0.258192 -0.819476,0 -1.605275,-0.325546 -0.774573,-0.325545 -1.335858,-0.864379 l 0.359222,-0.639865 q 0.527608,0.516383 1.223601,0.808251 0.695994,0.291868 1.369536,0.291868 0.898056,0 1.425664,-0.359222 0.527608,-0.370448 0.527608,-0.987862 0,-0.493931 -0.269417,-0.80825 -0.269417,-0.31432 -0.662316,-0.482706 -0.3929,-0.168385 -1.100119,-0.392899 -0.797025,-0.246965 -1.27973,-0.460254 -0.482705,-0.224514 -0.819476,-0.65109 -0.336771,-0.437803 -0.336771,-1.133796 0,-0.594962 0.336771,-1.04399 0.336771,-0.449028 0.942959,-0.684768 0.606188,-0.246965 1.403212,-0.246965 0.639865,0 1.27973,0.190837 0.651091,0.190836 1.145022,0.505156 z"
       id="path3170"
       style="fill:#ffffff" />
    <path
       d="M 40.905478,24.254404 H 41.6576 v 5.882267 h -0.752122 z m 0.381674,-2.222689 q 0.224514,0 0.370448,0.15716 0.145934,0.145934 0.145934,0.370448 0,0.224514 -0.15716,0.381674 -0.145934,0.15716 -0.359222,0.15716 -0.224514,0 -0.381674,-0.15716 -0.145934,-0.15716 -0.145934,-0.381674 0,-0.224514 0.145934,-0.370448 0.15716,-0.15716 0.381674,-0.15716 z"
       id="path3172"
       style="fill:#ffffff" />
    <path
       d="m 43.90273,21.807201 h 0.752122 v 8.32947 H 43.90273 Z"
       id="path3174"
       style="fill:#ffffff" />
    <path
       d="m 45.867214,24.254404 h 0.80825 l 1.953272,5.130145 1.930821,-5.130145 h 0.785799 l -2.334946,5.882267 h -0.797025 z"
       id="path3176"
       style="fill:#ffffff" />
    <path
       d="m 54.522218,24.231953 q 1.369535,0 2.08798,0.875604 0.718445,0.864379 0.662316,2.334946 h -4.905631 q 0.07858,0.942959 0.695994,1.526695 0.617413,0.572511 1.526695,0.572511 0.561285,0 1.04399,-0.202063 0.482705,-0.202062 0.830702,-0.57251 l 0.426576,0.426576 q -0.426576,0.460254 -1.032764,0.718445 -0.594962,0.246965 -1.313407,0.246965 -0.853153,0 -1.51547,-0.370448 -0.662316,-0.381673 -1.04399,-1.055215 -0.370448,-0.673543 -0.370448,-1.537921 0,-0.853154 0.370448,-1.526696 0.381674,-0.684767 1.04399,-1.055216 0.662317,-0.381673 1.493019,-0.381673 z m 2.076754,2.626814 q -0.05613,-0.920508 -0.617413,-1.459341 -0.55006,-0.55006 -1.448116,-0.55006 -0.88683,0 -1.481792,0.55006 -0.594962,0.550059 -0.684768,1.459341 z"
       id="path3178"
       style="fill:#ffffff" />
    <path
       d="m 59.596222,25.62394 q 0.291868,-0.673543 0.830702,-1.021539 0.550059,-0.359223 1.313407,-0.370448 v 0.707219 q -0.931734,-0.01123 -1.504244,0.550059 -0.561285,0.550059 -0.639865,1.504244 v 3.143196 H 58.8441 v -5.882267 h 0.752122 z"
       id="path3180"
       style="fill:#ffffff" />
    <path
       d="m 66.107118,24.231953 q 0.819477,0 1.459341,0.381673 0.651091,0.370449 1.010314,1.055216 0.359222,0.673542 0.359222,1.537921 0,0.853153 -0.359222,1.526696 -0.359223,0.673542 -0.999088,1.055215 -0.639865,0.370448 -1.459341,0.370448 -0.80825,0 -1.414438,-0.359222 -0.606188,-0.370448 -0.942959,-1.021539 v 1.35831 h -0.752122 v -8.32947 h 0.752122 v 3.805513 q 0.325545,-0.651091 0.931733,-1.010313 0.617414,-0.370448 1.414438,-0.370448 z m -0.134708,5.276079 q 0.628639,0 1.133796,-0.291868 0.505156,-0.303094 0.785799,-0.830702 0.280642,-0.527608 0.280642,-1.20115 0,-0.662316 -0.280642,-1.189924 -0.280643,-0.527608 -0.785799,-0.819477 -0.505157,-0.303093 -1.133796,-0.303093 -0.639865,0 -1.145021,0.303093 -0.493931,0.291869 -0.785799,0.819477 -0.280643,0.527608 -0.280643,1.189924 0,0.673542 0.280643,1.20115 0.280642,0.527608 0.785799,0.830702 0.505156,0.291868 1.145021,0.291868 z"
       id="path3182"
       style="fill:#ffffff" />
    <path
       d="m 70.586166,21.807201 h 0.752122 v 8.32947 h -0.752122 z"
       id="path3184"
       style="fill:#ffffff" />
    <path
       d="m 78.646205,24.254404 v 5.882267 h -0.763348 v -1.403212 q -0.291868,0.695993 -0.875604,1.055215 -0.572511,0.359223 -1.391987,0.370448 -1.04399,0 -1.638953,-0.606187 -0.583736,-0.617414 -0.583736,-1.683855 v -3.614676 h 0.763348 v 3.435064 q 0,0.830702 0.449028,1.302182 0.460253,0.460253 1.257278,0.460253 0.942959,-0.01123 1.481793,-0.639865 0.538833,-0.639864 0.538833,-1.672629 v -2.885005 z"
       id="path3186"
       style="fill:#ffffff" />
    <path
       d="m 83.125241,24.231953 q 1.369536,0 2.08798,0.875604 0.718445,0.864379 0.662317,2.334946 h -4.905631 q 0.07858,0.942959 0.695993,1.526695 0.617414,0.572511 1.526695,0.572511 0.561285,0 1.04399,-0.202063 0.482706,-0.202062 0.830702,-0.57251 l 0.426577,0.426576 q -0.426577,0.460254 -1.032765,0.718445 -0.594962,0.246965 -1.313406,0.246965 -0.853154,0 -1.51547,-0.370448 -0.662316,-0.381673 -1.04399,-1.055215 -0.370448,-0.673543 -0.370448,-1.537921 0,-0.853154 0.370448,-1.526696 0.381674,-0.684767 1.04399,-1.055216 0.662316,-0.381673 1.493018,-0.381673 z m 2.076755,2.626814 q -0.05613,-0.920508 -0.617414,-1.459341 -0.550059,-0.55006 -1.448115,-0.55006 -0.886831,0 -1.481793,0.55006 -0.594962,0.550059 -0.684767,1.459341 z"
       id="path3188"
       style="fill:#ffffff" />
  </g>
  <path
     id="path1616"
     style="fill:#ffffff;fill-opacity:1;fill-rule:nonzero;stroke:none;stroke-width:0.11448"
     d="m 41.367598,7.4165002 c -1.881038,0 -3.087793,1.429262 -3.098794,2.7666448 V 17.9359 c -0.0026,0.955895 1.453576,0.955895 1.451483,0 v -5.174268 h 1.4918 c 0.349045,0 0.647017,-0.252901 0.647017,-0.658535 0,-0.405635 -0.319247,-0.650862 -0.647017,-0.650862 h -1.4918 v -1.192293 c 0,-0.7631678 0.597119,-1.3989918 1.798987,-1.3842858 0.418046,0.0053 0.565386,0.106612 0.71806,0.199682 0.833518,0.552082 1.635268,-0.726214 0.76223,-1.215329 -0.53544,-0.327639 -1.035065,-0.443509 -1.631966,-0.443509 z m 15.899099,0.13821 c -0.452723,-0.02426 -0.785695,0.424142 -0.716133,0.850527 v 3.3023188 c -1.435534,-1.203582 -3.772255,-1.119629 -5.097463,0.21311 -1.340168,1.194158 -1.594846,3.358472 -0.620146,4.84979 0.715967,1.125868 2.025531,1.929939 3.375273,1.866193 0.848714,-0.0079 1.68973,-0.374586 2.342336,-0.915816 -0.067,0.427279 0.2632,0.879896 0.719978,0.852464 0.448379,0.01997 0.796486,-0.42247 0.72766,-0.850545 -0.0079,-3.175574 0.0079,-6.351329 -0.0079,-9.5267878 -0.02321,-0.35684 -0.363821,-0.651213 -0.719943,-0.641254 h -0.0019 z m 5.608178,3.2331868 c -2.189366,7.3e-5 -3.964277,1.760372 -3.964694,3.932056 -6.52e-4,2.172434 1.774571,3.933904 3.964694,3.933977 2.190122,-7.4e-5 3.965345,-1.761543 3.964693,-3.933977 -4.17e-4,-2.171684 -1.775327,-3.931982 -3.964693,-3.932056 z m 12.950051,0.03451 c -0.989712,0 -1.702991,0.293917 -2.223296,0.666217 -0.78875,0.564693 0.05991,1.745459 0.848619,1.180774 0.358977,-0.256868 0.625629,-0.393592 1.374677,-0.393592 0.932361,0.01874 1.681875,0.368262 1.681875,1.065572 -0.499863,0.316296 -2.672857,0.578568 -3.839891,1.242202 -1.167034,0.663642 -1.105899,1.501259 -1.105899,2.044748 0,1.192171 1.257766,1.99675 2.346182,1.99675 1.088425,0 1.550134,-0.228366 2.61497,-0.958058 v 0.207363 c -0.03442,1.001459 1.487814,1.001459 1.453402,0 v -4.27957 c 0.0044,-1.774987 -1.268602,-2.745377 -3.150639,-2.772406 z m -7.219007,0.01533 c -0.629833,0 -0.734789,0.519937 -0.731505,0.729586 v 6.3128 c -0.01727,0.408044 0.320237,0.74685 0.743032,0.74685 0.422776,0 0.760267,-0.338806 0.743014,-0.74685 0,0 0.01112,-2.348668 0,-3.851425 -0.01112,-1.502757 1.21214,-1.827794 1.63772,-1.827794 0.316025,0 0.569397,0.176436 0.819818,0.167038 0.371679,-0.01401 0.675817,-0.263716 0.675817,-0.700778 -0.01112,-0.706068 -0.876165,-0.805988 -1.514834,-0.792938 -0.638672,0.01305 -1.178385,0.208765 -1.645394,0.48767 0,0 -0.09782,-0.524158 -0.727668,-0.524159 z m -22.300206,0.01533 c -0.482125,-0.03705 -1.01478,0.0402 -1.60124,0.266871 -1.41933,0.548542 -2.382547,1.896277 -2.386489,3.55959 -0.0035,1.742309 1.215233,3.99033 3.743894,4.006928 1.700801,0.01112 2.55132,-0.624105 3.01048,-1.055973 0.304577,-0.269892 0.327087,-0.738914 0.048,-1.034855 -0.279649,-0.296492 -0.748917,-0.303762 -1.036774,-0.01533 -0.34273,0.321971 -0.847611,0.800164 -2.278983,0.641263 -0.614155,-0.06797 -1.273453,-0.566928 -1.493718,-0.948459 l 4.688516,-1.994823 C 49.358,14.118957 49.523663,13.703021 49.371866,13.341346 48.743968,12.105794 47.7521,10.964336 46.305715,10.853092 Z m 16.569162,1.40732 c 1.369678,-2.96e-4 2.480265,1.100834 2.480573,2.45945 7.7e-4,1.359371 -1.110134,2.461681 -2.480573,2.461384 -1.37044,2.98e-4 -2.481346,-1.102012 -2.480576,-2.461384 3.08e-4,-1.358616 1.110898,-2.459747 2.480576,-2.459449 z m -8.753052,0.03836 c 1.296015,-0.03381 2.453108,1.133103 2.428741,2.417223 0.02724,1.285304 -1.133821,2.450218 -2.428741,2.417206 -1.231236,0.03267 -2.360064,-1.010191 -2.422969,-2.232895 -0.131119,-1.260411 0.904026,-2.489973 2.171461,-2.590007 0.08365,-0.0079 0.167433,-0.01156 0.251508,-0.01156 z m -8.182821,0.03845 c 0.705114,6.49e-4 1.370403,0.364329 1.708753,0.950369 l -3.903259,1.66652 c -0.278651,-1.039927 0.864927,-2.262509 1.487963,-2.490175 0.233535,-0.08531 0.47151,-0.126932 0.706543,-0.126714 z m 31.617723,2.434488 c -2.32e-4,0.470642 0.007,0.606622 -0.0053,1.077098 -0.0035,0.56501 -0.357925,0.826345 -0.729586,1.042528 -0.371652,0.216184 -1.127356,0.405513 -1.56475,0.426228 -0.50453,0.01664 -1.172501,-0.09666 -1.207659,-0.695016 2.32e-4,-0.361176 0.175431,-0.585733 0.462717,-0.835173 0.680274,-0.510364 1.600768,-0.681195 3.045042,-1.015665 z"
     sodipodi:nodetypes="sccccssscscccscccccccccccccccccccccccssscccccsccscssccscscccccccccccccscccsscccccccscccsccsccccc" />
  <g
     style="stroke-width:0.461778"
     clip-path="url(#clipPath1368-4)"
     id="g404"
     transform="matrix(0.36997704,0,0,0.36997704,40.593228,-95.709074)">
    <g
       style="stroke-width:0.461778"
       id="g392">
      <rect
         y="245.25"
         x="-119.75"
         height="121"
         width="128"
         id="rect390"
         style="font-variation-settings:normal;opacity:1;vector-effect:none;fill:#51a2da;fill-opacity:1;stroke:none;stroke-width:3.60387;stroke-linecap:butt;stroke-linejoin:miter;stroke-miterlimit:4;stroke-dasharray:none;stroke-dashoffset:0;stroke-opacity:1;-inkscape-stroke:none;paint-order:markers fill stroke;stop-color:#000000;stop-opacity:1" />
    </g>
    <path
       inkscape:connector-curvature="0"
       id="path394"
       d="m -77.428193,253.67456 25.102291,54.09367 -55.507878,37.65343 -2.65165,-71.24101 z"
       style="font-variation-settings:normal;opacity:1;vector-effect:none;fill:#66abda;fill-opacity:1;stroke:none;stroke-width:3.60387;stroke-linecap:butt;stroke-linejoin:miter;stroke-miterlimit:4;stroke-dasharray:none;stroke-dashoffset:0;stroke-opacity:1;-inkscape-stroke:none;stop-color:#000000;stop-opacity:1" />
    <path
       sodipodi:nodetypes="ccccc"
       style="font-variation-settings:normal;opacity:1;vector-effect:none;fill:#4891c3;fill-opacity:1;stroke:none;stroke-width:3.60387;stroke-linecap:butt;stroke-linejoin:miter;stroke-miterlimit:4;stroke-dasharray:none;stroke-dashoffset:0;stroke-opacity:1;-inkscape-stroke:none;stop-color:#000000;stop-opacity:1"
       d="m -77.428193,253.67456 25.102291,54.09367 40.835421,-27.57717 -8.838834,-18.38478 z"
       id="path396"
       inkscape:connector-curvature="0" />
    <path
       inkscape:connector-curvature="0"
       id="path398"
       d="m -10.606602,315.01607 -41.7193,-7.24784 40.835421,-27.57717 7.424622,15.9099 z"
       style="font-variation-settings:normal;opacity:1;vector-effect:none;fill:#419cda;fill-opacity:1;stroke:none;stroke-width:3.60387;stroke-linecap:butt;stroke-linejoin:miter;stroke-miterlimit:4;stroke-dasharray:none;stroke-dashoffset:0;stroke-opacity:1;-inkscape-stroke:none;stop-color:#000000;stop-opacity:1"
       sodipodi:nodetypes="ccccc" />
    <path
       sodipodi:nodetypes="ccccc"
       style="font-variation-settings:normal;opacity:1;vector-effect:none;fill:#66abda;fill-opacity:1;stroke:none;stroke-width:3.60387;stroke-linecap:butt;stroke-linejoin:miter;stroke-miterlimit:4;stroke-dasharray:none;stroke-dashoffset:0;stroke-opacity:1;-inkscape-stroke:none;stop-color:#000000;stop-opacity:1"
       d="m -10.606602,315.01607 -41.7193,-7.24784 5.656859,17.50089 29.344932,-6.18719 z"
       id="path400"
       inkscape:connector-curvature="0" />
    <path
       inkscape:connector-curvature="0"
       id="path402"
       d="m -16.61701,343.47712 -45.078057,-9.36916 15.026024,-8.83884 29.344932,-6.18719 z"
       style="font-variation-settings:normal;opacity:1;vector-effect:none;fill:#4891c3;fill-opacity:1;stroke:none;stroke-width:3.60387;stroke-linecap:butt;stroke-linejoin:miter;stroke-miterlimit:4;stroke-dasharray:none;stroke-dashoffset:0;stroke-opacity:1;-inkscape-stroke:none;stop-color:#000000;stop-opacity:1"
       sodipodi:nodetypes="ccccc" />
  </g>
  <path
     inkscape:connector-curvature="0"
     d="m 14.294879,8.8468253 c -1.550156,0 -2.827133,1.2766237 -2.827133,2.8267727 0,1.245667 0.825172,2.313378 1.953497,2.685381 v 9.578852 h 9.747336 c 0.371904,1.128294 1.439371,1.953486 2.685004,1.953486 1.550138,0 2.827151,-1.276998 2.827151,-2.827131 0,-1.550133 -1.277013,-2.826756 -2.827151,-2.826756 -1.197676,0 -2.229285,0.763363 -2.637744,1.824906 h -6.58138 l 7.905562,-7.850251 c 0.373069,0.182908 0.789577,0.288646 1.229692,0.288646 1.550138,1.7e-5 2.826754,-1.276982 2.826754,-2.827133 0,-1.550149 -1.276616,-2.8267727 -2.826754,-2.8267727 -1.550135,0 -2.826774,1.2766407 -2.826774,2.8267727 0,0.430946 0.101519,0.839101 0.277287,1.206234 l -7.92351,7.86785 v -6.435959 c 1.061541,-0.408548 1.824916,-1.440415 1.824916,-2.638125 0,-1.550132 -1.276637,-2.8267727 -2.826753,-2.8267727 z m 0,1.8754787 c 0.53657,0 0.951278,0.414782 0.951278,0.951294 0,0.536513 -0.414708,0.951655 -0.951278,0.951655 -0.536592,1.7e-5 -0.951655,-0.415125 -0.951655,-0.951655 0,-0.536512 0.415063,-0.951294 0.951655,-0.951294 z m 11.474834,0 c 0.536594,0 0.951278,0.414782 0.951278,0.951294 0,0.53653 -0.414684,0.951672 -0.951278,0.951655 -0.536593,0 -0.9513,-0.415142 -0.9513,-0.951655 0,-0.536512 0.414707,-0.951294 0.9513,-0.951294 z m 0.08387,11.390586 c 0.536594,0 0.951674,0.414784 0.951674,0.951296 0,0.536512 -0.41508,0.951655 -0.951674,0.951655 -0.536573,0 -0.951276,-0.415143 -0.951276,-0.951655 0,-0.536512 0.414703,-0.951296 0.951276,-0.951296 z"
     style="color:#000000;font-style:normal;font-variant:normal;font-weight:normal;font-stretch:normal;font-size:medium;line-height:normal;font-family:sans-serif;font-variant-ligatures:normal;font-variant-position:normal;font-variant-caps:normal;font-variant-numeric:normal;font-variant-alternates:normal;font-variant-east-asian:normal;font-feature-settings:normal;font-variation-settings:normal;text-indent:0;text-align:start;text-decoration:none;text-decoration-line:none;text-decoration-style:solid;text-decoration-color:#000000;letter-spacing:normal;word-spacing:normal;text-transform:none;writing-mode:lr-tb;direction:ltr;text-orientation:mixed;dominant-baseline:auto;baseline-shift:baseline;text-anchor:start;white-space:normal;shape-padding:0;shape-margin:0;inline-size:0;clip-rule:nonzero;display:inline;overflow:visible;visibility:visible;isolation:auto;mix-blend-mode:normal;color-interpolation:sRGB;color-interpolation-filters:linearRGB;solid-color:#000000;solid-opacity:1;vector-effect:none;fill:#ffffff;fill-opacity:1;fill-rule:nonzero;stroke:none;stroke-width:1.70847;stroke-linecap:butt;stroke-linejoin:miter;stroke-miterlimit:4;stroke-dasharray:none;stroke-dashoffset:0;stroke-opacity:1;color-rendering:auto;image-rendering:auto;shape-rendering:auto;text-rendering:auto;enable-background:accumulate;stop-color:#000000"
     id="path442" />
</svg>
